<?xml version="1.0" encoding="UTF-8"?>
<svg id="Layer_1" xmlns="http://www.w3.org/2000/svg" version="1.1" viewBox="0 0 155 115">
  <!-- Generator: Adobe Illustrator 30.3.0, SVG Export Plug-In . SVG Version: 2.1.1 Build 126)  -->
  <defs>
    <style>
      .st0 {
        fill: #fff;
      }
    </style>
  </defs>
  <path class="st0" d="M144.94.35c-1.5.19-6.38.5-10.83.77-4.45.23-9.57.58-11.42.77-1.85.19-4.57.46-6.11.58-1.5.15-3.9.42-5.32.62s-4.33.62-6.5.93-6.22.93-9.06,1.35c-2.8.46-6.85,1.08-8.94,1.35-5.28.77-5.71.89-6.81,2.2-1.77,2.09-1.1,5.49,1.3,6.45,1.54.66,2.48.62,12.68-.27,5.08-.46,10.2-.89,11.34-1,3.31-.27,3.86.08,4.77,3.13,2.56,8.69,3.58,14.72,3.58,21.05,0,4.6-1.18,14.99-2.17,19.24-.35,1.39-.79,3.52-1.02,4.75-.2,1.27-.67,3.01-.98,3.86-.32.89-1.22,3.4-1.97,5.6-1.42,4.13-6.38,14.37-7.6,15.72-.39.42-1.1,1.47-1.61,2.32-4.73,7.76-10.56,12.17-16.15,12.17-3.39,0-5.71-.73-9.34-2.97-3.58-2.16-6.46-4.87-8.71-8.11-2.56-3.71-7.33-13.91-7.8-16.57l-.24-1.55,2.72-1.51c1.46-.85,4.25-3.01,6.14-4.83,6.38-6.03,10.6-13.87,12.68-23.56.83-3.9.75-10.35-.16-14.72-1.77-8.34-5.12-13.52-10.48-16.03-3.15-1.51-4.1-1.58-6.26-.54-3.66,1.74-6.14,4.56-9.65,10.97-4.33,7.92-6.66,16.8-7.01,26.85-.24,6.14-.04,8.54,1.26,15.57l.47,2.59-1.58.23c-.87.15-3.07.15-4.88,0l-3.39-.27.28-2.01c.95-7.69,1.1-10.47.91-19.51-.2-11.13-.79-15.34-3.27-23.22-1.61-5.1-2.21-6.34-3.66-7.84-1.5-1.58-3.07-2.28-5.16-2.28-2.48,0-3.82.73-6.62,3.75-3.58,3.82-6.89,11.7-7.96,18.93-.59,4.09-.47,10.35.24,13.1,2.13,8.27,4.14,12.55,8.27,17.54,2.28,2.74,3.55,3.86,6.58,5.91.43.31-.91,4.44-2.52,7.69-.63,1.27-1.14,2.47-1.14,2.63,0,.62-5.12,8.65-6.97,10.97-3.47,4.29-7.37,8.58-10.71,11.7-1.81,1.7-3.55,3.63-3.82,4.33-1.46,3.32,2.01,6.84,5.44,5.56,1.3-.46,9.97-8.88,12.72-12.32,1.1-1.35,2.52-3.13,3.15-3.9,1.18-1.39,3.55-4.83,6.03-8.65.67-1.04,1.77-3.21,2.48-4.83.67-1.62,1.38-3.17,1.54-3.36.16-.23.71-1.58,1.18-3.05l.91-2.67,2.8.31c3.62.39,6.22.39,8.9.08l2.17-.27,1.1,3.44c1.3,4.02,5.12,11.78,7.64,15.68,3.98,6.06,12.57,12.67,18.83,14.45,7.76,2.2,13.2,1.16,20.76-4.06,2.44-1.7,3.74-3.01,5.79-5.72,2.64-3.52,4.88-6.68,6.74-9.66,3.43-5.37,9.65-20.7,10.67-26.27.2-1.08.51-2.67.71-3.52,1.61-7.07,2.4-14.41,2.4-22.52,0-3.67-.24-7.88-.55-9.73-.63-3.63-2.76-12.36-3.66-14.99-.32-.93-.47-1.78-.39-1.89.28-.23,11.38-1.2,19.58-1.7,13.9-.81,16.43-1.35,17.33-3.67.75-1.89.47-3.24-.95-4.64-1.22-1.2-1.54-1.31-3.62-1.27-1.3.04-3.55.19-5.08.35ZM64.23,20.36c.87.58,2.52,3.09,3.15,4.75,1.02,2.78,2.13,8.07,2.13,10.31,0,3.44-.79,7.26-2.36,11.63-2.13,5.87-5.04,10.47-8.74,13.83-1.65,1.47-4.21,3.05-4.41,2.74-.04-.08-.35-1.78-.63-3.79-1.34-8.96-.51-17.81,2.48-26.5,2.05-5.83,6.38-13.29,7.76-13.29.12,0,.39.15.63.31ZM26.14,27.97c1.89,7.3,2.36,11.86,2.17,22.21-.08,4.98-.28,9.85-.43,10.78l-.32,1.74-1.61-1.93c-7.37-8.69-9.06-21.09-4.45-32.37,1.77-4.4,2.64-5.87,3.11-5.41.2.19.87,2.43,1.54,4.98Z"/>
</svg>